<svg width="35" height="28" viewBox="0 0 35 28" fill="none" xmlns="http://www.w3.org/2000/svg">
<circle cx="28.875" cy="9.62476" r="4.375" fill="#9797AA"/>
<circle cx="4.375" cy="9.62476" r="4.375" fill="#9797AA"/>
<path d="M34.3577 19.5793C37.0801 21.5643 30.7123 24.481 23.4679 24.481C16.2234 24.481 10.3505 21.1349 12.8255 19.5793C15.3004 18.0238 17.5 18.356 23.4679 16.8335C30.1503 13.9168 31.6352 17.5944 34.3577 19.5793Z" fill="#9797AA"/>
<path d="M22.1077 19.5981C24.8301 21.583 18.4623 24.4998 11.2179 24.4998C3.97337 24.4998 -1.89949 21.1536 0.575479 19.5981C3.05045 18.0425 4.78296 13.7411 11.2179 16.8522C18.375 16.8522 19.3852 17.6131 22.1077 19.5981Z" fill="#9797AA"/>
<path d="M28.4084 20.667C31.2602 23.2033 24.5898 26.9303 17.001 26.9303C9.41222 26.9303 3.26023 22.6547 5.85283 20.667C8.44543 18.6794 10.2603 13.1831 17.001 17.1585C24.001 13.4316 25.5565 18.1307 28.4084 20.667Z" fill="#9797AA" stroke="#030816"/>
<ellipse cx="16.626" cy="7" rx="6.125" ry="7" fill="#9797AA"/>
</svg>
