<svg width="1152" height="723" viewBox="0 0 1152 723" fill="none" style="background: linear-gradient(147.68deg, #4863AA 19.38%, #425DA2 19.38%, #254BAD 48.53%);" xmlns="http://www.w3.org/2000/svg">
<path d="M773.482 228.405L877.537 187.074L848.305 127.723L415.78 321.444L293.487 484.832L307.022 507.039L359.719 521L420.444 562.892L473.892 518.795L500.81 458.358L644.207 418.141L656.658 384.197L722.167 382.932L731.879 304.104L773.482 228.405Z" stroke="#7284B6"/>
<path d="M522.828 338.1L647.182 281.398L666.659 320.342L538.561 377.116L522.828 338.1Z" fill="#082B3A" stroke="#7284B6"/>
<path d="M14.8659 697.581L263.297 594.014L324.304 717.319L827.809 472.17L869.393 492.431L855.646 532.017L889.086 542.605L897.079 568.664L946.891 530.254L1922.85 530.254L1922.85 708.358L1922.85 1095.69L94.6601 1095.69L-19.5002 717.319L14.8659 697.581Z" fill="url(#paint0_linear)" stroke="#7284B6" stroke-width="0.5"/>
<g filter="url(#filter0_f)">
<path d="M138.637 344.117L179.992 425.235L-0.655617 499.876L-0.655085 -231.5L1384 -203.5L861.31 49.7672L838.522 9.01489L138.637 344.117Z" fill="url(#paint1_linear)"/>
<path d="M138.637 344.117L179.992 425.235L-0.655617 499.876L-0.655085 -231.5L1384 -203.5L861.31 49.7672L838.522 9.01489L138.637 344.117Z" stroke="#7284B6"/>
</g>
<g filter="url(#filter1_d)">
<path d="M621.362 229.003L695.028 383.456L721.232 382.95L732.338 303.627L773.959 228.863L800.89 217.577L770.345 162.932L621.362 229.003Z" fill="#071332" stroke="#7284B6"/>
<path d="M769.584 164.219L800.112 217.929L877.236 187.885L848.021 129.469L769.584 164.219Z" fill="#071332" stroke="#7284B6"/>
<path d="M293.945 484.355L328.658 439.683L359.701 520.064L307.022 507.039L293.945 484.355Z" fill="#071332" stroke="#7284B6"/>
<path d="M387.312 446.976L360.609 397.405L328.173 438.756L338.983 465.229L387.312 446.976Z" fill="#071332" stroke="#7284B6"/>
<path d="M421.372 562.406L439.781 546.135L387.302 446.508L339.441 464.752L360.178 520.523L421.372 562.406Z" fill="#071332" stroke="#7284B6"/>
<path d="M360.572 395.534L389.346 358.467L469.753 522.62L440.249 546.126L360.572 395.534Z" fill="#071332" stroke="#7284B6"/>
<path d="M417.167 320.481L438.529 311.643L480.686 410.065L425.447 434.069L388.42 358.952L417.167 320.481Z" fill="#071332" stroke="#7284B6"/>
<path d="M474.828 518.777L502.215 458.331L480.227 410.542L426.382 434.051L469.304 523.564L474.828 518.777Z" fill="#071332" stroke="#7284B6"/>
<path d="M438.996 311.634L498.861 284.732L562.719 440.311L502.214 458.331L438.996 311.634Z" fill="#071332" stroke="#7284B6"/>
<path d="M497.907 283.814L621.839 229.461L645.77 280.958L522.351 337.641L497.907 283.814Z" fill="#071332" stroke="#7284B6"/>
<path d="M562.729 440.779L539.039 377.575L665.76 322.233L695.002 382.052L658.504 382.757L644.217 418.609L562.729 440.779Z" fill="#071332" stroke="#7284B6"/>
<path d="M678.178 431.995L665.895 426.147L549.52 459.758L533.855 472.699L558.654 472.22L678.35 440.886L678.178 431.995Z" fill="#071332" stroke="#7284B6"/>
<path d="M852.012 125.779L892.079 108.621L1019.38 381.403L858.421 457.536L790.983 436.314L779.161 417.836L739.855 417.095L731.679 379.026L741.937 306.664L782.583 236.28L885.555 190.196L852.012 125.779Z" fill="#071332" stroke="#7284B6"/>
<path d="M750.663 452.596L826.828 469.849L645.048 558.554L587.469 485.707L690.374 457.505L718.449 456.963L712.572 443.502L726.447 434.808L741.42 434.519L750.663 452.596Z" fill="#071332" stroke="#7284B6"/>
<path d="M446.217 575.38L449.625 654.891L322.553 716.325L264.043 595.282L286.852 564.415L298.451 559.042L308.277 558.852L353.677 582.785L359.5 593.438L363.335 622.386L377.769 618.363L377.507 604.793L388.269 604.585L388.603 621.898L405.978 600.498L446.217 575.38Z" fill="#071332" stroke="#7284B6"/>
<path d="M563.997 578.792L558.825 601.829L449.822 653.553L448.285 574.006L478.573 566.867L486.187 573.274L490.398 573.192L485.906 558.768L507.429 534.011L519.432 525.354L534.487 529.276L547.302 538.39L563.997 578.792Z" fill="#071332" stroke="#7284B6"/>
<path d="M587.018 486.651L644.111 558.571L569.895 593.708L574.266 577.708L546.015 520.678L529.575 517.719L523.365 511.286L523.22 503.799L567.834 487.022L587.018 486.651Z" fill="#071332" stroke="#7284B6"/>
<path d="M837.596 9.50083L349.213 243.621L335.584 289.29L304.613 309.548L317.653 330.361L387.189 270.974L484.343 235.862L532.95 207.773L556.408 186.256L588.226 185.641L860.375 49.7852L837.596 9.50083Z" fill="#071332" stroke="#7284B6"/>
<path d="M179.525 425.245L140.069 345.494L345.497 245.098L332.795 290.281L302.75 310.053L315.845 333.673L290.885 350.071L273.572 350.405L243.052 394.059L179.525 425.245Z" fill="#071332" stroke="#7284B6"/>
</g>
<path d="M893.313 107.193L1894.5 -351L1925.95 457.526L1032.07 457.526L858.888 457.526L950.31 416.441L1022.17 380.413L1001.67 336.808L979.76 293.23L937.738 201.827L893.313 107.193Z" fill="url(#paint2_linear)" stroke="#7284B6" stroke-width="0.5"/>
<defs>
<filter id="filter0_f" x="-5.15527" y="-236.01" width="1393.37" height="740.633" filterUnits="userSpaceOnUse" color-interpolation-filters="sRGB">
<feFlood flood-opacity="0" result="BackgroundImageFix"/>
<feBlend mode="normal" in="SourceGraphic" in2="BackgroundImageFix" result="shape"/>
<feGaussianBlur stdDeviation="2" result="effect1_foregroundBlur"/>
</filter>
<filter id="filter1_d" x="135.398" y="8.8479" width="888.645" height="716.145" filterUnits="userSpaceOnUse" color-interpolation-filters="sRGB">
<feFlood flood-opacity="0" result="BackgroundImageFix"/>
<feColorMatrix in="SourceAlpha" type="matrix" values="0 0 0 0 0 0 0 0 0 0 0 0 0 0 0 0 0 0 127 0"/>
<feOffset dy="4"/>
<feGaussianBlur stdDeviation="2"/>
<feColorMatrix type="matrix" values="0 0 0 0 0 0 0 0 0 0 0 0 0 0 0 0 0 0 0.25 0"/>
<feBlend mode="normal" in2="BackgroundImageFix" result="effect1_dropShadow"/>
<feBlend mode="normal" in="SourceGraphic" in2="effect1_dropShadow" result="shape"/>
</filter>
<linearGradient id="paint0_linear" x1="359.286" y1="655.618" x2="267" y2="476" gradientUnits="userSpaceOnUse">
<stop offset="0.209227" stop-color="#01030B"/>
<stop offset="0.713963" stop-color="#01030B"/>
<stop offset="0.747303" stop-color="#03091B" stop-opacity="0.80694"/>
<stop offset="0.985119" stop-color="#03091B" stop-opacity="0.187116"/>
<stop offset="0.985219" stop-color="#03091B" stop-opacity="0"/>
</linearGradient>
<linearGradient id="paint1_linear" x1="220.365" y1="100.003" x2="586.142" y2="977.862" gradientUnits="userSpaceOnUse">
<stop stop-color="#00030A"/>
<stop offset="0.0520833" stop-color="#00030A"/>
<stop offset="0.411458" stop-color="#00030A" stop-opacity="0.336263"/>
<stop offset="0.515625" stop-color="#00030A" stop-opacity="0"/>
</linearGradient>
<linearGradient id="paint2_linear" x1="1315.48" y1="161.402" x2="728.783" y2="200.529" gradientUnits="userSpaceOnUse">
<stop offset="0.614583" stop-color="#00030B"/>
<stop offset="1" stop-color="#00030B" stop-opacity="0"/>
</linearGradient>
</defs>
</svg>
