<svg width="417" height="896" viewBox="0 0 417 896" fill="none" xmlns="http://www.w3.org/2000/svg">
<g clip-path="url(#clip0)">
<g filter="url(#filter0_dd)">
<path d="M261.92 295.433L299.371 233.628L261.206 214.471L114.075 482.656L114.785 614.381L130.402 620.537L162.96 607.194L210.531 605.098L220.859 561.584L211.169 519.995L269.301 443.437L262.486 421.118L295.707 394.948L269.997 350.597L261.92 295.433Z" stroke="#7284B6"/>
<path d="M175.654 449.528L217.565 371.905L242.758 384.36L198.95 463.478L175.654 449.528Z" fill="#082B3A" stroke="#7284B6"/>
<path d="M54.2705 832.407L141.779 682.331L221.209 722.024L382.935 399.213L414.13 393.95L422.476 419.677L443.81 412.1L458.075 422.397L468.748 383.226L845.656 99.3601L918.97 196.218L1387.59 815.324L501.497 1471.96L11.4994 912L54.2705 832.407Z" fill="url(#paint0_linear)" stroke="#7284B6"/>
<g filter="url(#filter1_f)">
<path d="M-19.7216 602.285L33.1608 627.922L-30.7322 736.706L-247.196 461.923L-56.8506 15.1608L326.513 -31.1972L237.532 169.285L209.93 157.19L-19.7216 602.285Z" fill="url(#paint1_linear)"/>
<path d="M-19.7216 602.285L33.1608 627.922L-30.7322 736.706L-247.196 461.923L-56.8506 15.1608L326.513 -31.1972L237.532 169.285L209.93 157.19L-19.7216 602.285Z" stroke="#7284B6"/>
</g>
<g filter="url(#filter2_d)">
<path d="M183.864 354.998L281.943 405.79L295.231 395.322L270.047 350.173L262.343 295.483L271.806 279.184L234.799 262.96L183.864 354.998Z" fill="#071332" stroke="#7284B6"/>
<path d="M234.435 263.291L271.544 279.668L299.532 234.163L261.265 214.853L234.435 263.291Z" fill="#071332" stroke="#7284B6"/>
<path d="M114.835 613.957L115.298 577.445L162.586 606.72L130.401 620.537L114.835 613.957Z" fill="#071332" stroke="#7284B6"/>
<path d="M148.324 558.35L115.271 543.241L114.687 577.157L130.562 586.57L148.324 558.35Z" fill="#071332" stroke="#7284B6"/>
<path d="M210.817 604.487L213.954 588.942L148.136 558.112L130.612 586.146L163.009 606.77L210.817 604.487Z" fill="#071332" stroke="#7284B6"/>
<path d="M114.524 542.292L114.893 512.007L220.219 565.165L214.192 588.755L114.524 542.292Z" fill="#071332" stroke="#7284B6"/>
<path d="M114.413 481.621L121.963 468.751L181.999 502.98L162.921 536.852L114.605 512.618L114.413 481.621Z" fill="#071332" stroke="#7284B6"/>
<path d="M221.334 561.21L211.881 519.434L181.95 503.405L163.396 536.479L220.355 565.826L221.334 561.21Z" fill="#071332" stroke="#7284B6"/>
<path d="M122.201 468.564L142.369 430.176L236.884 485.921L211.881 519.434L122.201 468.564Z" fill="#071332" stroke="#7284B6"/>
<path d="M141.682 431.298L184.289 355.049L216.666 372.228L175.23 449.477L141.682 431.298Z" fill="#071332" stroke="#7284B6"/>
<path d="M236.186 486.828L199.374 463.529L243.031 385.683L282.339 405.495L262.432 421.446L269.487 443.674L236.186 486.828Z" fill="#071332" stroke="#7284B6"/>
<path d="M292.18 437.334L283.58 439.11L236.782 501.74L233.761 514.503L246.337 504.596L295.731 441.843L292.18 437.334Z" fill="#071332" stroke="#7284B6"/>
<path d="M262.356 212.026L277.093 186.479L448.068 278.383L394.889 380.265L351.916 395.614L338.634 390.71L318.117 405.64L299.079 389.233L276.17 347.997L269.671 295.94L304.712 232.111L262.356 212.026Z" fill="#071332" stroke="#7284B6"/>
<path d="M337.509 419.7L383.427 398.909L325.75 515.867L266.421 500.312L308.394 445.712L322.631 434.496L314.363 429.858L318.117 419.979L325.71 413.997L337.509 419.7Z" fill="#071332" stroke="#7284B6"/>
<path d="M229.405 598.827L261.386 641.077L219.921 722.194L142.658 682.693L142.372 657.923L146.248 650.639L151.231 646.714L183.918 641.345L191.065 644.559L204.316 657.963L210.176 650.27L204.755 643.388L210.213 639.089L217.13 647.869L217.735 630.087L229.405 598.827Z" fill="#071332" stroke="#7284B6"/>
<path d="M290.603 557.361L296.915 571.231L261.91 643.202L229.188 599.973L241.995 584.5L248.408 584.831L250.544 583.149L242.614 577.475L244.046 556.351L246.851 547.219L256.126 543.373L266.272 543.072L290.603 557.361Z" fill="#071332" stroke="#7284B6"/>
<path d="M266.557 500.973L325.75 515.867L301.281 563.459L295.465 552.802L258.71 534.458L249.096 539.339L243.394 538.447L240.403 534.65L256.828 508.637L266.557 500.973Z" fill="#071332" stroke="#7284B6"/>
<path d="M209.641 157.801L49.5002 468.537L60.2763 497.349L52.2288 519.839L67.0475 525.47L79.6992 467.82L116.021 411.904L130.095 378.514L133.785 358.302L149.92 345.591L237.057 169.659L209.641 157.801Z" fill="#071332" stroke="#7284B6"/>
<path d="M32.9233 628.109L-18.4491 602.436L49.6377 468.387L60.2658 497.34L52.1649 519.776L67.0899 525.41L60.9494 546.042L52.1697 552.958L53.4687 587.313L32.9233 628.109Z" fill="#071332" stroke="#7284B6"/>
</g>
<path d="M276.372 186.372L531.86 -294.082L806.474 68.7178L484.253 312.616L395.127 380.079L424.499 323.229L449.118 276.788L421.581 262.333L393.331 248.44L336.099 217.769L276.372 186.372Z" fill="url(#paint2_linear)" stroke="#7284B6"/>
</g>
</g>
<defs>
<filter id="filter0_dd" x="-251.772" y="-295.008" width="1644.07" height="1775.64" filterUnits="userSpaceOnUse" color-interpolation-filters="sRGB">
<feFlood flood-opacity="0" result="BackgroundImageFix"/>
<feColorMatrix in="SourceAlpha" type="matrix" values="0 0 0 0 0 0 0 0 0 0 0 0 0 0 0 0 0 0 127 0"/>
<feOffset dy="4"/>
<feGaussianBlur stdDeviation="2"/>
<feColorMatrix type="matrix" values="0 0 0 0 0 0 0 0 0 0 0 0 0 0 0 0 0 0 0.25 0"/>
<feBlend mode="normal" in2="BackgroundImageFix" result="effect1_dropShadow"/>
<feColorMatrix in="SourceAlpha" type="matrix" values="0 0 0 0 0 0 0 0 0 0 0 0 0 0 0 0 0 0 127 0"/>
<feOffset dy="4"/>
<feGaussianBlur stdDeviation="2"/>
<feColorMatrix type="matrix" values="0 0 0 0 0 0 0 0 0 0 0 0 0 0 0 0 0 0 0.25 0"/>
<feBlend mode="normal" in2="effect1_dropShadow" result="effect2_dropShadow"/>
<feBlend mode="normal" in="SourceGraphic" in2="effect2_dropShadow" result="shape"/>
</filter>
<filter id="filter1_f" x="-251.772" y="-35.7993" width="583.1" height="777.389" filterUnits="userSpaceOnUse" color-interpolation-filters="sRGB">
<feFlood flood-opacity="0" result="BackgroundImageFix"/>
<feBlend mode="normal" in="SourceGraphic" in2="BackgroundImageFix" result="shape"/>
<feGaussianBlur stdDeviation="2" result="effect1_foregroundBlur"/>
</filter>
<filter id="filter2_d" x="-23.123" y="157.156" width="475.863" height="573.711" filterUnits="userSpaceOnUse" color-interpolation-filters="sRGB">
<feFlood flood-opacity="0" result="BackgroundImageFix"/>
<feColorMatrix in="SourceAlpha" type="matrix" values="0 0 0 0 0 0 0 0 0 0 0 0 0 0 0 0 0 0 127 0"/>
<feOffset dy="4"/>
<feGaussianBlur stdDeviation="2"/>
<feColorMatrix type="matrix" values="0 0 0 0 0 0 0 0 0 0 0 0 0 0 0 0 0 0 0.25 0"/>
<feBlend mode="normal" in2="BackgroundImageFix" result="effect1_dropShadow"/>
<feBlend mode="normal" in="SourceGraphic" in2="effect1_dropShadow" result="shape"/>
</filter>
<linearGradient id="paint0_linear" x1="215.113" y1="676.644" x2="106.127" y2="597.031" gradientUnits="userSpaceOnUse">
<stop offset="0.0685131" stop-color="#01030A"/>
<stop offset="0.447917" stop-color="#03091B" stop-opacity="0.80694"/>
<stop offset="0.985119" stop-color="#03091B" stop-opacity="0.187116"/>
<stop offset="0.985219" stop-color="#03091B" stop-opacity="0"/>
</linearGradient>
<linearGradient id="paint1_linear" x1="-72.7554" y1="444.817" x2="457.455" y2="754.112" gradientUnits="userSpaceOnUse">
<stop stop-color="#00030A"/>
<stop offset="0.138429" stop-color="#00030A"/>
<stop offset="0.411458" stop-color="#00030A" stop-opacity="0.336263"/>
<stop offset="0.515625" stop-color="#00030A" stop-opacity="0"/>
</linearGradient>
<linearGradient id="paint2_linear" x1="514.762" y1="49.8117" x2="-8.41903" y2="501.044" gradientUnits="userSpaceOnUse">
<stop offset="0.9999" stop-color="#01030A"/>
<stop offset="1" stop-color="#00030B" stop-opacity="0"/>
</linearGradient>
<clipPath id="clip0">
<rect width="417" height="896" fill="white"/>
</clipPath>
</defs>
</svg>
