<svg width="532" height="1273" viewBox="0 0 532 1273" fill="none" style="background: linear-gradient(147.68deg, #4863AA 19.38%, #425DA2 19.38%, #254BAD 48.53%);" xmlns="http://www.w3.org/2000/svg">
    <path d="M318.92 484.432L356.371 422.628L318.206 403.47L171.075 671.656L171.785 803.381L187.402 809.537L219.96 796.194L267.531 794.098L277.859 750.583L268.169 708.994L326.301 632.437L319.486 610.118L352.707 583.948L326.997 539.597L318.92 484.432Z" stroke="#7284B6"/>
    <path d="M232.656 638.527L274.567 560.904L299.76 573.359L255.952 652.477L232.656 638.527Z" fill="#082B3A" stroke="#7284B6"/>
    <path d="M113 1027.5L198.78 871.331L278.21 911.024L439.937 588.212L471.131 582.949L479.477 608.676L500.811 601.099L515.076 611.397L537 571.5L537 681.5L537 813.5L537 1021.41L537 1271.04L-21.0613 1271.04L113 1027.5Z" fill="url(#paint0_linear)" stroke="#7284B6"/>
    <path d="M37.2773 791.283L90.1597 816.92L-4.0014 1011.5L-4.00138 741L-4.00203 -0.500144L220.5 -0.500129L453.5 -0.500132L383.511 157.8L294.531 358.283L266.928 346.187L37.2773 791.283Z" fill="url(#paint1_linear)" stroke="#7284B6"/>
    <g filter="url(#filter0_d)">
        <path d="M240.864 543.996L338.943 594.788L352.231 584.319L327.047 539.17L319.343 484.481L328.806 468.181L291.799 451.957L240.864 543.996Z" fill="#071332" stroke="#7284B6"/>
        <path d="M291.434 452.289L328.543 468.665L356.531 423.16L318.264 403.85L291.434 452.289Z" fill="#071332" stroke="#7284B6"/>
        <path d="M171.834 802.955L172.297 766.443L219.585 795.717L187.4 809.535L171.834 802.955Z" fill="#071332" stroke="#7284B6"/>
        <path d="M205.323 747.348L172.271 732.239L171.686 766.155L187.561 775.568L205.323 747.348Z" fill="#071332" stroke="#7284B6"/>
        <path d="M267.817 793.484L270.954 777.939L205.136 747.11L187.612 775.144L220.009 795.767L267.817 793.484Z" fill="#071332" stroke="#7284B6"/>
        <path d="M171.523 731.29L171.892 701.004L277.218 754.162L271.191 777.753L171.523 731.29Z" fill="#071332" stroke="#7284B6"/>
        <path d="M171.412 670.618L178.962 657.748L238.998 691.978L219.92 725.85L171.604 701.615L171.412 670.618Z" fill="#071332" stroke="#7284B6"/>
        <path d="M278.333 750.207L268.88 708.431L238.949 692.402L220.395 725.476L277.354 754.823L278.333 750.207Z" fill="#071332" stroke="#7284B6"/>
        <path d="M179.2 657.561L199.368 619.174L293.883 674.919L268.88 708.432L179.2 657.561Z" fill="#071332" stroke="#7284B6"/>
        <path d="M198.681 620.296L241.288 544.046L273.665 561.226L232.229 638.475L198.681 620.296Z" fill="#071332" stroke="#7284B6"/>
        <path d="M293.185 675.825L256.373 652.527L300.03 574.681L339.338 594.493L319.431 610.444L326.486 632.672L293.185 675.825Z" fill="#071332" stroke="#7284B6"/>
        <path d="M349.179 626.332L340.579 628.107L293.781 690.738L290.76 703.5L303.336 693.593L352.73 630.84L349.179 626.332Z" fill="#071332" stroke="#7284B6"/>
        <path d="M319.355 401.023L334.092 375.476L505.067 467.381L451.888 569.263L408.915 584.612L395.633 579.707L375.116 594.637L356.078 578.23L333.169 536.994L326.67 484.938L361.711 421.109L319.355 401.023Z" fill="#071332" stroke="#7284B6"/>
        <path d="M394.508 608.698L440.426 587.907L382.749 704.865L323.42 689.309L365.393 634.71L379.63 623.494L371.362 618.856L375.116 608.977L382.709 602.995L394.508 608.698Z" fill="#071332" stroke="#7284B6"/>
        <path d="M286.404 787.824L318.385 830.075L276.92 911.192L199.657 871.691L199.371 846.92L203.247 839.637L208.23 835.711L240.917 830.342L248.064 833.557L261.315 846.961L267.175 839.267L261.754 832.386L267.212 828.087L274.129 836.866L274.734 819.085L286.404 787.824Z" fill="#071332" stroke="#7284B6"/>
        <path d="M347.602 746.358L353.914 760.229L318.909 832.2L286.187 788.97L298.994 773.498L305.407 773.829L307.543 772.147L299.613 766.473L301.045 745.348L303.85 736.217L313.125 732.371L323.271 732.069L347.602 746.358Z" fill="#071332" stroke="#7284B6"/>
        <path d="M323.556 689.971L382.749 704.864L358.28 752.456L352.464 741.8L315.709 723.455L306.095 728.337L300.393 727.445L297.402 723.648L313.827 697.635L323.556 689.971Z" fill="#071332" stroke="#7284B6"/>
        <path d="M266.64 346.798L106.499 657.534L117.275 686.346L109.228 708.837L124.047 714.468L136.698 656.818L173.02 600.902L187.094 567.511L190.784 547.3L206.92 534.588L294.056 358.657L266.64 346.798Z" fill="#071332" stroke="#7284B6"/>
        <path d="M89.9223 817.106L38.5499 791.434L106.637 657.384L117.265 686.338L109.164 708.774L124.089 714.408L117.948 735.039L109.169 741.955L110.468 776.31L89.9223 817.106Z" fill="#071332" stroke="#7284B6"/>
    </g>
    <path d="M333.373 375.368L522.498 -1.50238L533.499 -1.50238L533.499 512.225L452.127 569.075L481.5 512.225L506.119 465.784L478.582 451.329L450.332 437.436L393.1 406.765L333.373 375.368Z" fill="url(#paint2_linear)" stroke="#7284B6"/>
    <defs>
        <filter id="filter0_d" x="-11.418" y="337.076" width="521.157" height="582.789" filterUnits="userSpaceOnUse" color-interpolation-filters="sRGB">
            <feFlood flood-opacity="0" result="BackgroundImageFix"/>
            <feColorMatrix in="SourceAlpha" type="matrix" values="0 0 0 0 0 0 0 0 0 0 0 0 0 0 0 0 0 0 127 0"/>
            <feOffset dy="4"/>
            <feGaussianBlur stdDeviation="2"/>
            <feColorMatrix type="matrix" values="0 0 0 0 0 0 0 0 0 0 0 0 0 0 0 0 0 0 0.25 0"/>
            <feBlend mode="normal" in2="BackgroundImageFix" result="effect1_dropShadow"/>
            <feBlend mode="normal" in="SourceGraphic" in2="effect1_dropShadow" result="shape"/>
        </filter>
        <linearGradient id="paint0_linear" x1="272.013" y1="865.62" x2="163.027" y2="786.007" gradientUnits="userSpaceOnUse">
            <stop offset="0.0685131" stop-color="#01030A"/>
            <stop offset="0.447917" stop-color="#03091B" stop-opacity="0.80694"/>
            <stop offset="0.985119" stop-color="#03091B" stop-opacity="0.187116"/>
            <stop offset="0.985219" stop-color="#03091B" stop-opacity="0"/>
        </linearGradient>
        <linearGradient id="paint1_linear" x1="-15.6822" y1="633.808" x2="514.529" y2="943.103" gradientUnits="userSpaceOnUse">
            <stop stop-color="#00030A"/>
            <stop offset="0.138429" stop-color="#00030A"/>
            <stop offset="0.411458" stop-color="#00030A" stop-opacity="0.336263"/>
            <stop offset="0.515625" stop-color="#00030A" stop-opacity="0"/>
        </linearGradient>
        <linearGradient id="paint2_linear" x1="571.763" y1="238.808" x2="48.582" y2="690.04" gradientUnits="userSpaceOnUse">
            <stop offset="0.9999" stop-color="#01030A"/>
            <stop offset="1" stop-color="#00030B" stop-opacity="0"/>
        </linearGradient>
    </defs>
</svg>
