<svg width="414" height="896" viewBox="0 0 414 896" fill="none" style="background: linear-gradient(147.68deg, #4863AA 19.38%, #425DA2 19.38%, #254BAD 48.53%);" xmlns="http://www.w3.org/2000/svg">
<g filter="url(#filter0_f)">
<path d="M281.404 330.974L319.093 269.314L281.003 250.01L132.838 517.625L133.04 649.352L148.633 655.568L181.242 642.351L228.821 640.439L239.317 596.964L229.788 555.338L288.214 479.006L281.486 456.661L314.807 430.619L289.269 386.169L281.404 330.974Z" stroke="#7284B6"/>
<path d="M194.545 484.735L236.755 407.274L261.9 419.827L217.787 498.775L194.545 484.735Z" fill="#082B3A" stroke="#7284B6"/>
<path d="M71.6857 867.143L159.773 717.407L239.049 757.406L402.019 435.221L433.234 430.078L441.481 455.838L462.844 448.343L477.068 458.695L487.893 419.565L865.894 137.155L938.834 234.295L1405.06 855.205L516.441 1508.41L48.6195 909.819L71.6857 867.143Z" fill="url(#paint0_linear)" stroke="#7284B6"/>
<g filter="url(#filter1_f)">
<path d="M-1.41918 636.737L51.3639 662.578L-12.9483 771.114L-228.351 495.498L-49.5 4.59632L347.257 4.59557L257.504 204.733L229.948 192.531L-1.41918 636.737Z" fill="url(#paint1_linear)"/>
<path d="M-1.41918 636.737L51.3639 662.578L-12.9483 771.114L-228.351 495.498L-49.5 4.59632L347.257 4.59557L257.504 204.733L229.948 192.531L-1.41918 636.737Z" stroke="#7284B6"/>
</g>
<g filter="url(#filter2_d)">
<path d="M203.12 390.238L301.002 441.407L314.331 430.991L289.321 385.745L281.828 331.026L291.354 314.763L254.41 298.396L203.12 390.238Z" fill="#071332" stroke="#7284B6"/>
<path d="M254.044 298.727L291.089 315.246L319.252 269.849L281.061 250.392L254.044 298.727Z" fill="#071332" stroke="#7284B6"/>
<path d="M133.093 648.928L133.696 612.418L180.871 641.875L148.633 655.569L133.093 648.928Z" fill="#071332" stroke="#7284B6"/>
<path d="M166.795 593.451L133.801 578.214L133.085 612.128L148.924 621.602L166.795 593.451Z" fill="#071332" stroke="#7284B6"/>
<path d="M229.112 639.829L232.308 624.296L166.61 593.213L148.977 621.178L181.295 641.927L229.112 639.829Z" fill="#071332" stroke="#7284B6"/>
<path d="M133.058 577.263L133.543 546.979L238.664 600.543L232.546 624.11L133.058 577.263Z" fill="#071332" stroke="#7284B6"/>
<path d="M133.181 516.591L140.781 503.751L200.685 538.212L181.476 572.01L133.253 547.589L133.181 516.591Z" fill="#071332" stroke="#7284B6"/>
<path d="M239.793 596.593L230.502 554.78L200.633 538.636L181.952 571.638L238.797 601.205L239.793 596.593Z" fill="#071332" stroke="#7284B6"/>
<path d="M141.019 503.565L161.336 465.255L255.634 521.364L230.502 554.78L141.019 503.565Z" fill="#071332" stroke="#7284B6"/>
<path d="M160.643 466.374L203.545 390.29L235.855 407.594L194.121 484.683L160.643 466.374Z" fill="#071332" stroke="#7284B6"/>
<path d="M254.933 522.268L218.211 498.828L262.168 421.151L301.4 441.115L281.43 456.988L288.4 479.244L254.933 522.268Z" fill="#071332" stroke="#7284B6"/>
<path d="M311.117 472.991L302.511 474.733L255.471 537.183L252.401 549.934L265.016 540.075L314.652 477.513L311.117 472.991Z" fill="#071332" stroke="#7284B6"/>
<path d="M282.163 247.569L296.998 222.079L467.618 314.643L414.046 416.319L371.014 431.502L357.751 426.546L337.177 441.397L318.202 424.916L295.453 383.592L289.154 331.512L324.442 267.818L282.163 247.569Z" fill="#071332" stroke="#7284B6"/>
<path d="M356.514 455.532L402.512 434.918L344.384 551.653L285.115 535.869L327.299 481.432L341.58 470.271L333.329 465.601L337.121 455.736L344.737 449.784L356.514 455.532Z" fill="#071332" stroke="#7284B6"/>
<path d="M247.72 634.24L279.537 676.614L237.76 757.571L160.65 717.771L160.459 693L164.363 685.732L169.362 681.825L202.069 676.583L209.204 679.825L222.403 693.279L228.293 685.609L222.898 678.707L228.373 674.428L235.255 683.235L235.929 665.456L247.72 634.24Z" fill="#071332" stroke="#7284B6"/>
<path d="M309.077 593.01L315.335 606.905L280.053 678.741L247.498 635.385L260.365 619.962L266.777 620.318L268.919 618.644L261.011 612.94L262.524 591.821L265.364 582.7L274.655 578.89L284.801 578.628L309.077 593.01Z" fill="#071332" stroke="#7284B6"/>
<path d="M285.249 536.531L344.384 551.653L319.732 599.15L313.957 588.471L277.273 569.985L267.641 574.829L261.942 573.915L258.966 570.107L275.491 544.157L285.249 536.531Z" fill="#071332" stroke="#7284B6"/>
<path d="M229.658 193.141L68.319 503.257L78.9839 532.111L70.8497 554.57L85.6466 560.258L98.5206 502.657L135.058 446.882L149.26 413.546L153.028 393.348L169.213 380.7L257.028 205.105L229.658 193.141Z" fill="#071332" stroke="#7284B6"/>
<path d="M51.1262 662.764L-0.146739 636.893L68.4568 503.108L78.9731 532.102L70.7857 554.506L85.6889 560.198L79.4688 580.805L70.6624 587.688L71.8289 622.048L51.1262 662.764Z" fill="#071332" stroke="#7284B6"/>
</g>
<path d="M296.278 221.97L553.617 -257.495L826.83 106.362L503.67 349.015L414.284 416.133L443.876 359.397L468.674 313.051L441.192 298.491L412.996 284.488L355.883 253.597L296.278 221.97Z" fill="url(#paint2_linear)" stroke="#7284B6"/>
</g>
<defs>
<filter id="filter0_f" x="-230.915" y="-260.422" width="1638.68" height="1771.53" filterUnits="userSpaceOnUse" color-interpolation-filters="sRGB">
<feFlood flood-opacity="0" result="BackgroundImageFix"/>
<feBlend mode="normal" in="SourceGraphic" in2="BackgroundImageFix" result="shape"/>
<feGaussianBlur stdDeviation="1" result="effect1_foregroundBlur"/>
</filter>
<filter id="filter1_f" x="-232.915" y="0.095459" width="584.945" height="775.903" filterUnits="userSpaceOnUse" color-interpolation-filters="sRGB">
<feFlood flood-opacity="0" result="BackgroundImageFix"/>
<feBlend mode="normal" in="SourceGraphic" in2="BackgroundImageFix" result="shape"/>
<feGaussianBlur stdDeviation="2" result="effect1_foregroundBlur"/>
</filter>
<filter id="filter2_d" x="-49.2285" y="171.898" width="551.599" height="616.874" filterUnits="userSpaceOnUse" color-interpolation-filters="sRGB">
<feFlood flood-opacity="0" result="BackgroundImageFix"/>
<feColorMatrix in="SourceAlpha" type="matrix" values="0 0 0 0 0 0 0 0 0 0 0 0 0 0 0 0 0 0 127 0"/>
<feOffset dy="4"/>
<feGaussianBlur stdDeviation="2"/>
<feColorMatrix type="matrix" values="0 0 0 0 0 0 0 0 0 0 0 0 0 0 0 0 0 0 0.25 0"/>
<feBlend mode="normal" in2="BackgroundImageFix" result="effect1_dropShadow"/>
<feBlend mode="normal" in="SourceGraphic" in2="effect1_dropShadow" result="shape"/>
</filter>
<linearGradient id="paint0_linear" x1="233.188" y1="711.998" x2="124.51" y2="631.965" gradientUnits="userSpaceOnUse">
<stop offset="0.0685131" stop-color="#01030A"/>
<stop offset="0.447917" stop-color="#03091B" stop-opacity="0.80694"/>
<stop offset="0.985119" stop-color="#03091B" stop-opacity="0.187116"/>
<stop offset="0.985219" stop-color="#03091B" stop-opacity="0"/>
</linearGradient>
<linearGradient id="paint1_linear" x1="-53.8445" y1="479.064" x2="475.169" y2="790.402" gradientUnits="userSpaceOnUse">
<stop stop-color="#00030A"/>
<stop offset="0.138429" stop-color="#00030A"/>
<stop offset="0.411458" stop-color="#00030A" stop-opacity="0.336263"/>
<stop offset="0.515625" stop-color="#00030A" stop-opacity="0"/>
</linearGradient>
<linearGradient id="paint2_linear" x1="535.192" y1="86.3302" x2="10.2744" y2="535.54" gradientUnits="userSpaceOnUse">
<stop offset="0.9999" stop-color="#01030A"/>
<stop offset="1" stop-color="#00030B" stop-opacity="0"/>
</linearGradient>
</defs>
</svg>
